<svg width="37" height="24" viewBox="0 0 37 24" fill="none" xmlns="http://www.w3.org/2000/svg">
<path fill-rule="evenodd" clip-rule="evenodd" d="M3.99768 1.53296H33.9977C35.1022 1.53296 35.9977 2.42839 35.9977 3.53296V5.73663H1.99768V3.53296C1.99768 2.42839 2.89311 1.53296 3.99768 1.53296ZM1.99768 6.73663H35.9977V11.533H1.99768V6.73663ZM1.99768 12.533V20.533C1.99768 21.6375 2.89311 22.533 3.99768 22.533H33.9977C35.1022 22.533 35.9977 21.6375 35.9977 20.533V12.533H1.99768ZM36.9977 12.533V20.533C36.9977 22.1898 35.6545 23.533 33.9977 23.533H3.99768C2.34083 23.533 0.997681 22.1898 0.997681 20.533V3.53296C0.997681 1.87611 2.34083 0.532959 3.99768 0.532959H33.9977C35.6545 0.532959 36.9977 1.8761 36.9977 3.53296V11.533V12.533ZM28.092 15.8382H30.4524C31.0047 15.8382 31.4524 16.2859 31.4524 16.8382V18.3712C31.4524 18.9235 31.0047 19.3712 30.4524 19.3712H28.092C27.5398 19.3712 27.092 18.9235 27.092 18.3712V16.8382C27.092 16.2859 27.5398 15.8382 28.092 15.8382ZM26.092 16.8382C26.092 15.7336 26.9875 14.8382 28.092 14.8382H30.4524C31.5569 14.8382 32.4524 15.7336 32.4524 16.8382V18.3712C32.4524 19.4758 31.5569 20.3712 30.4524 20.3712H28.092C26.9875 20.3712 26.092 19.4758 26.092 18.3712V16.8382Z" fill="#98A487"/>
</svg>
